<mxfile host="app.diagrams.net" agent="Mozilla/5.0 (Windows NT 10.0; Win64; x64) AppleWebKit/537.36 (KHTML, like Gecko) Chrome/139.0.0.0 Safari/537.36" version="28.1.0">
  <diagram name="Page-1" id="2g-yXgRZPiYedcETT3DH">
    <mxGraphModel dx="2225" dy="1906" grid="1" gridSize="10" guides="1" tooltips="1" connect="1" arrows="1" fold="1" page="1" pageScale="1" pageWidth="827" pageHeight="1169" math="0" shadow="0">
      <root>
        <mxCell id="0" />
        <mxCell id="1" parent="0" />
        <mxCell id="rivaF_KSEnStWMLOV1FW-5" value="Student" style="swimlane;fontStyle=0;childLayout=stackLayout;horizontal=1;startSize=26;fillColor=none;horizontalStack=0;resizeParent=1;resizeParentMax=0;resizeLast=0;collapsible=1;marginBottom=0;whiteSpace=wrap;html=1;" parent="1" vertex="1">
          <mxGeometry x="-60" y="240" width="140" height="104" as="geometry" />
        </mxCell>
        <mxCell id="rivaF_KSEnStWMLOV1FW-6" value="+ student_id: number" style="text;strokeColor=none;fillColor=none;align=left;verticalAlign=top;spacingLeft=4;spacingRight=4;overflow=hidden;rotatable=0;points=[[0,0.5],[1,0.5]];portConstraint=eastwest;whiteSpace=wrap;html=1;" parent="rivaF_KSEnStWMLOV1FW-5" vertex="1">
          <mxGeometry y="26" width="140" height="26" as="geometry" />
        </mxCell>
        <mxCell id="rivaF_KSEnStWMLOV1FW-7" value="+ class_id_FK: number" style="text;strokeColor=none;fillColor=none;align=left;verticalAlign=top;spacingLeft=4;spacingRight=4;overflow=hidden;rotatable=0;points=[[0,0.5],[1,0.5]];portConstraint=eastwest;whiteSpace=wrap;html=1;" parent="rivaF_KSEnStWMLOV1FW-5" vertex="1">
          <mxGeometry y="52" width="140" height="26" as="geometry" />
        </mxCell>
        <mxCell id="rivaF_KSEnStWMLOV1FW-8" value="+ field: type" style="text;strokeColor=none;fillColor=none;align=left;verticalAlign=top;spacingLeft=4;spacingRight=4;overflow=hidden;rotatable=0;points=[[0,0.5],[1,0.5]];portConstraint=eastwest;whiteSpace=wrap;html=1;" parent="rivaF_KSEnStWMLOV1FW-5" vertex="1">
          <mxGeometry y="78" width="140" height="26" as="geometry" />
        </mxCell>
        <mxCell id="rivaF_KSEnStWMLOV1FW-9" value="Teacher" style="swimlane;fontStyle=0;childLayout=stackLayout;horizontal=1;startSize=26;fillColor=none;horizontalStack=0;resizeParent=1;resizeParentMax=0;resizeLast=0;collapsible=1;marginBottom=0;whiteSpace=wrap;html=1;" parent="1" vertex="1">
          <mxGeometry x="660" y="240" width="140" height="52" as="geometry" />
        </mxCell>
        <mxCell id="rivaF_KSEnStWMLOV1FW-10" value="+ teacher_id: number" style="text;strokeColor=none;fillColor=none;align=left;verticalAlign=top;spacingLeft=4;spacingRight=4;overflow=hidden;rotatable=0;points=[[0,0.5],[1,0.5]];portConstraint=eastwest;whiteSpace=wrap;html=1;" parent="rivaF_KSEnStWMLOV1FW-9" vertex="1">
          <mxGeometry y="26" width="140" height="26" as="geometry" />
        </mxCell>
        <mxCell id="rivaF_KSEnStWMLOV1FW-13" value="Parent" style="swimlane;fontStyle=0;childLayout=stackLayout;horizontal=1;startSize=26;fillColor=none;horizontalStack=0;resizeParent=1;resizeParentMax=0;resizeLast=0;collapsible=1;marginBottom=0;whiteSpace=wrap;html=1;" parent="1" vertex="1">
          <mxGeometry x="360" y="240" width="140" height="52" as="geometry" />
        </mxCell>
        <mxCell id="rivaF_KSEnStWMLOV1FW-14" value="+ parent_id: number" style="text;strokeColor=none;fillColor=none;align=left;verticalAlign=top;spacingLeft=4;spacingRight=4;overflow=hidden;rotatable=0;points=[[0,0.5],[1,0.5]];portConstraint=eastwest;whiteSpace=wrap;html=1;" parent="rivaF_KSEnStWMLOV1FW-13" vertex="1">
          <mxGeometry y="26" width="140" height="26" as="geometry" />
        </mxCell>
        <mxCell id="rivaF_KSEnStWMLOV1FW-17" value="Subject" style="swimlane;fontStyle=0;childLayout=stackLayout;horizontal=1;startSize=26;fillColor=none;horizontalStack=0;resizeParent=1;resizeParentMax=0;resizeLast=0;collapsible=1;marginBottom=0;whiteSpace=wrap;html=1;" parent="1" vertex="1">
          <mxGeometry x="-60" y="460" width="140" height="104" as="geometry" />
        </mxCell>
        <mxCell id="rivaF_KSEnStWMLOV1FW-18" value="+ subject_id: number" style="text;strokeColor=none;fillColor=none;align=left;verticalAlign=top;spacingLeft=4;spacingRight=4;overflow=hidden;rotatable=0;points=[[0,0.5],[1,0.5]];portConstraint=eastwest;whiteSpace=wrap;html=1;" parent="rivaF_KSEnStWMLOV1FW-17" vertex="1">
          <mxGeometry y="26" width="140" height="26" as="geometry" />
        </mxCell>
        <mxCell id="rivaF_KSEnStWMLOV1FW-19" value="+ name: string" style="text;strokeColor=none;fillColor=none;align=left;verticalAlign=top;spacingLeft=4;spacingRight=4;overflow=hidden;rotatable=0;points=[[0,0.5],[1,0.5]];portConstraint=eastwest;whiteSpace=wrap;html=1;" parent="rivaF_KSEnStWMLOV1FW-17" vertex="1">
          <mxGeometry y="52" width="140" height="26" as="geometry" />
        </mxCell>
        <mxCell id="rivaF_KSEnStWMLOV1FW-20" value="+ field: type" style="text;strokeColor=none;fillColor=none;align=left;verticalAlign=top;spacingLeft=4;spacingRight=4;overflow=hidden;rotatable=0;points=[[0,0.5],[1,0.5]];portConstraint=eastwest;whiteSpace=wrap;html=1;" parent="rivaF_KSEnStWMLOV1FW-17" vertex="1">
          <mxGeometry y="78" width="140" height="26" as="geometry" />
        </mxCell>
        <mxCell id="rivaF_KSEnStWMLOV1FW-34" value="Person" style="swimlane;fontStyle=0;childLayout=stackLayout;horizontal=1;startSize=26;fillColor=none;horizontalStack=0;resizeParent=1;resizeParentMax=0;resizeLast=0;collapsible=1;marginBottom=0;whiteSpace=wrap;html=1;" parent="1" vertex="1">
          <mxGeometry x="100" y="60" width="170" height="130" as="geometry" />
        </mxCell>
        <mxCell id="rivaF_KSEnStWMLOV1FW-36" value="+ first_name: string" style="text;strokeColor=none;fillColor=none;align=left;verticalAlign=top;spacingLeft=4;spacingRight=4;overflow=hidden;rotatable=0;points=[[0,0.5],[1,0.5]];portConstraint=eastwest;whiteSpace=wrap;html=1;" parent="rivaF_KSEnStWMLOV1FW-34" vertex="1">
          <mxGeometry y="26" width="170" height="26" as="geometry" />
        </mxCell>
        <mxCell id="rvQ-3mQatl_0PxyZc41R-2" value="+ second_name: string" style="text;strokeColor=none;fillColor=none;align=left;verticalAlign=top;spacingLeft=4;spacingRight=4;overflow=hidden;rotatable=0;points=[[0,0.5],[1,0.5]];portConstraint=eastwest;whiteSpace=wrap;html=1;" parent="rivaF_KSEnStWMLOV1FW-34" vertex="1">
          <mxGeometry y="52" width="170" height="26" as="geometry" />
        </mxCell>
        <mxCell id="rivaF_KSEnStWMLOV1FW-42" value="+ password_hash: string" style="text;strokeColor=none;fillColor=none;align=left;verticalAlign=top;spacingLeft=4;spacingRight=4;overflow=hidden;rotatable=0;points=[[0,0.5],[1,0.5]];portConstraint=eastwest;whiteSpace=wrap;html=1;" parent="rivaF_KSEnStWMLOV1FW-34" vertex="1">
          <mxGeometry y="78" width="170" height="26" as="geometry" />
        </mxCell>
        <mxCell id="rvQ-3mQatl_0PxyZc41R-1" value="+ salt: string" style="text;strokeColor=none;fillColor=none;align=left;verticalAlign=top;spacingLeft=4;spacingRight=4;overflow=hidden;rotatable=0;points=[[0,0.5],[1,0.5]];portConstraint=eastwest;whiteSpace=wrap;html=1;" parent="rivaF_KSEnStWMLOV1FW-34" vertex="1">
          <mxGeometry y="104" width="170" height="26" as="geometry" />
        </mxCell>
        <mxCell id="rivaF_KSEnStWMLOV1FW-38" value="" style="endArrow=open;endFill=1;endSize=12;html=1;rounded=0;exitX=0.25;exitY=0;exitDx=0;exitDy=0;entryX=1;entryY=0.5;entryDx=0;entryDy=0;" parent="1" source="rivaF_KSEnStWMLOV1FW-13" target="rvQ-3mQatl_0PxyZc41R-2" edge="1">
          <mxGeometry width="160" relative="1" as="geometry">
            <mxPoint x="230" y="320" as="sourcePoint" />
            <mxPoint x="390" y="320" as="targetPoint" />
            <Array as="points">
              <mxPoint x="395" y="125" />
            </Array>
          </mxGeometry>
        </mxCell>
        <mxCell id="rivaF_KSEnStWMLOV1FW-41" value="" style="endArrow=open;endFill=1;endSize=12;html=1;rounded=0;exitX=0.5;exitY=0;exitDx=0;exitDy=0;entryX=1;entryY=0.5;entryDx=0;entryDy=0;" parent="1" source="rivaF_KSEnStWMLOV1FW-9" edge="1">
          <mxGeometry width="160" relative="1" as="geometry">
            <mxPoint x="270" y="100" as="sourcePoint" />
            <mxPoint x="270" y="99" as="targetPoint" />
            <Array as="points">
              <mxPoint x="730" y="100" />
            </Array>
          </mxGeometry>
        </mxCell>
        <mxCell id="rivaF_KSEnStWMLOV1FW-45" value="has_child" style="endArrow=none;html=1;rounded=0;align=center;verticalAlign=top;endFill=0;labelBackgroundColor=none;exitX=1;exitY=0.25;exitDx=0;exitDy=0;" parent="1" source="rivaF_KSEnStWMLOV1FW-5" edge="1">
          <mxGeometry relative="1" as="geometry">
            <mxPoint x="70" y="260" as="sourcePoint" />
            <mxPoint x="360" y="266" as="targetPoint" />
          </mxGeometry>
        </mxCell>
        <mxCell id="rivaF_KSEnStWMLOV1FW-46" value="has_child" style="resizable=0;html=1;align=left;verticalAlign=bottom;labelBackgroundColor=none;" parent="rivaF_KSEnStWMLOV1FW-45" connectable="0" vertex="1">
          <mxGeometry x="-1" relative="1" as="geometry" />
        </mxCell>
        <mxCell id="rivaF_KSEnStWMLOV1FW-47" value="0..n" style="resizable=0;html=1;align=left;verticalAlign=top;labelBackgroundColor=none;" parent="rivaF_KSEnStWMLOV1FW-45" connectable="0" vertex="1">
          <mxGeometry x="-1" relative="1" as="geometry" />
        </mxCell>
        <mxCell id="rivaF_KSEnStWMLOV1FW-48" value="is_child_of" style="resizable=0;html=1;align=right;verticalAlign=bottom;labelBackgroundColor=none;" parent="rivaF_KSEnStWMLOV1FW-45" connectable="0" vertex="1">
          <mxGeometry x="1" relative="1" as="geometry" />
        </mxCell>
        <mxCell id="rivaF_KSEnStWMLOV1FW-49" value="0..n" style="resizable=0;html=1;align=right;verticalAlign=top;labelBackgroundColor=none;" parent="rivaF_KSEnStWMLOV1FW-45" connectable="0" vertex="1">
          <mxGeometry x="1" relative="1" as="geometry" />
        </mxCell>
        <mxCell id="rivaF_KSEnStWMLOV1FW-39" value="" style="endArrow=open;endFill=1;endSize=12;html=1;rounded=0;exitX=0.5;exitY=0;exitDx=0;exitDy=0;entryX=0;entryY=0.5;entryDx=0;entryDy=0;" parent="1" source="rivaF_KSEnStWMLOV1FW-5" target="rvQ-3mQatl_0PxyZc41R-2" edge="1">
          <mxGeometry width="160" relative="1" as="geometry">
            <mxPoint x="230" y="320" as="sourcePoint" />
            <mxPoint x="20" y="180" as="targetPoint" />
            <Array as="points">
              <mxPoint x="10" y="125" />
            </Array>
          </mxGeometry>
        </mxCell>
        <mxCell id="rivaF_KSEnStWMLOV1FW-50" value="studies" style="endArrow=none;html=1;rounded=0;align=center;verticalAlign=top;endFill=0;labelBackgroundColor=none;exitX=1;exitY=0.5;exitDx=0;exitDy=0;entryX=1;entryY=0.5;entryDx=0;entryDy=0;" parent="1" source="rivaF_KSEnStWMLOV1FW-8" target="rivaF_KSEnStWMLOV1FW-18" edge="1">
          <mxGeometry relative="1" as="geometry">
            <mxPoint x="50" y="430" as="sourcePoint" />
            <mxPoint x="170" y="490" as="targetPoint" />
            <Array as="points">
              <mxPoint x="130" y="331" />
              <mxPoint x="200" y="330" />
              <mxPoint x="200" y="500" />
            </Array>
          </mxGeometry>
        </mxCell>
        <mxCell id="rivaF_KSEnStWMLOV1FW-51" value="is_studied_by" style="resizable=0;html=1;align=left;verticalAlign=bottom;labelBackgroundColor=none;" parent="rivaF_KSEnStWMLOV1FW-50" connectable="0" vertex="1">
          <mxGeometry x="-1" relative="1" as="geometry" />
        </mxCell>
        <mxCell id="rivaF_KSEnStWMLOV1FW-52" value="0..n" style="resizable=0;html=1;align=left;verticalAlign=top;labelBackgroundColor=none;" parent="rivaF_KSEnStWMLOV1FW-50" connectable="0" vertex="1">
          <mxGeometry x="-1" relative="1" as="geometry" />
        </mxCell>
        <mxCell id="rivaF_KSEnStWMLOV1FW-53" value="studies" style="resizable=0;html=1;align=right;verticalAlign=bottom;labelBackgroundColor=none;" parent="rivaF_KSEnStWMLOV1FW-50" connectable="0" vertex="1">
          <mxGeometry x="1" relative="1" as="geometry">
            <mxPoint x="40" as="offset" />
          </mxGeometry>
        </mxCell>
        <mxCell id="rivaF_KSEnStWMLOV1FW-54" value="0..n" style="resizable=0;html=1;align=right;verticalAlign=top;labelBackgroundColor=none;" parent="rivaF_KSEnStWMLOV1FW-50" connectable="0" vertex="1">
          <mxGeometry x="1" relative="1" as="geometry">
            <mxPoint x="20" y="-5" as="offset" />
          </mxGeometry>
        </mxCell>
        <mxCell id="rivaF_KSEnStWMLOV1FW-58" value="teaches" style="endArrow=none;html=1;rounded=0;align=center;verticalAlign=top;endFill=0;labelBackgroundColor=none;exitX=1;exitY=0.5;exitDx=0;exitDy=0;entryX=0;entryY=0.5;entryDx=0;entryDy=0;" parent="1" source="rivaF_KSEnStWMLOV1FW-20" target="rivaF_KSEnStWMLOV1FW-10" edge="1">
          <mxGeometry relative="1" as="geometry">
            <mxPoint x="180" y="564" as="sourcePoint" />
            <mxPoint x="660" y="305" as="targetPoint" />
            <Array as="points">
              <mxPoint x="310" y="550" />
              <mxPoint x="660" y="550" />
            </Array>
          </mxGeometry>
        </mxCell>
        <mxCell id="rivaF_KSEnStWMLOV1FW-59" value="teaches" style="resizable=0;html=1;align=left;verticalAlign=bottom;labelBackgroundColor=none;" parent="rivaF_KSEnStWMLOV1FW-58" connectable="0" vertex="1">
          <mxGeometry x="-1" relative="1" as="geometry">
            <mxPoint y="-1" as="offset" />
          </mxGeometry>
        </mxCell>
        <mxCell id="rivaF_KSEnStWMLOV1FW-60" value="0..n" style="resizable=0;html=1;align=left;verticalAlign=top;labelBackgroundColor=none;" parent="rivaF_KSEnStWMLOV1FW-58" connectable="0" vertex="1">
          <mxGeometry x="-1" relative="1" as="geometry">
            <mxPoint y="-1" as="offset" />
          </mxGeometry>
        </mxCell>
        <mxCell id="rivaF_KSEnStWMLOV1FW-61" value="is_taught_by" style="resizable=0;html=1;align=right;verticalAlign=bottom;labelBackgroundColor=none;" parent="rivaF_KSEnStWMLOV1FW-58" connectable="0" vertex="1">
          <mxGeometry x="1" relative="1" as="geometry">
            <mxPoint y="19" as="offset" />
          </mxGeometry>
        </mxCell>
        <mxCell id="rivaF_KSEnStWMLOV1FW-62" value="0..n" style="resizable=0;html=1;align=right;verticalAlign=top;labelBackgroundColor=none;" parent="rivaF_KSEnStWMLOV1FW-58" connectable="0" vertex="1">
          <mxGeometry x="1" relative="1" as="geometry">
            <mxPoint x="-10" y="19" as="offset" />
          </mxGeometry>
        </mxCell>
        <mxCell id="rivaF_KSEnStWMLOV1FW-64" value="Grade Group" style="swimlane;fontStyle=0;childLayout=stackLayout;horizontal=1;startSize=26;fillColor=none;horizontalStack=0;resizeParent=1;resizeParentMax=0;resizeLast=0;collapsible=1;marginBottom=0;whiteSpace=wrap;html=1;" parent="1" vertex="1">
          <mxGeometry x="-810" y="240" width="220" height="182" as="geometry" />
        </mxCell>
        <mxCell id="rivaF_KSEnStWMLOV1FW-65" value="+ grade_group_id: number" style="text;strokeColor=none;fillColor=none;align=left;verticalAlign=top;spacingLeft=4;spacingRight=4;overflow=hidden;rotatable=0;points=[[0,0.5],[1,0.5]];portConstraint=eastwest;whiteSpace=wrap;html=1;" parent="rivaF_KSEnStWMLOV1FW-64" vertex="1">
          <mxGeometry y="26" width="220" height="26" as="geometry" />
        </mxCell>
        <mxCell id="rivaF_KSEnStWMLOV1FW-102" value="+ subject_id_FK: number" style="text;strokeColor=none;fillColor=none;align=left;verticalAlign=top;spacingLeft=4;spacingRight=4;overflow=hidden;rotatable=0;points=[[0,0.5],[1,0.5]];portConstraint=eastwest;whiteSpace=wrap;html=1;" parent="rivaF_KSEnStWMLOV1FW-64" vertex="1">
          <mxGeometry y="52" width="220" height="26" as="geometry" />
        </mxCell>
        <mxCell id="rivaF_KSEnStWMLOV1FW-68" value="+ teacher_id_FK: number" style="text;strokeColor=none;fillColor=none;align=left;verticalAlign=top;spacingLeft=4;spacingRight=4;overflow=hidden;rotatable=0;points=[[0,0.5],[1,0.5]];portConstraint=eastwest;whiteSpace=wrap;html=1;" parent="rivaF_KSEnStWMLOV1FW-64" vertex="1">
          <mxGeometry y="78" width="220" height="26" as="geometry" />
        </mxCell>
        <mxCell id="d7hLo8dY_kVcd_JbLJmu-35" value="+ name: string" style="text;strokeColor=none;fillColor=none;align=left;verticalAlign=top;spacingLeft=4;spacingRight=4;overflow=hidden;rotatable=0;points=[[0,0.5],[1,0.5]];portConstraint=eastwest;whiteSpace=wrap;html=1;" parent="rivaF_KSEnStWMLOV1FW-64" vertex="1">
          <mxGeometry y="104" width="220" height="26" as="geometry" />
        </mxCell>
        <mxCell id="gnhrXuDob14jfXbyUYOa-2" value="+ date: timestamp" style="text;strokeColor=none;fillColor=none;align=left;verticalAlign=top;spacingLeft=4;spacingRight=4;overflow=hidden;rotatable=0;points=[[0,0.5],[1,0.5]];portConstraint=eastwest;whiteSpace=wrap;html=1;" parent="rivaF_KSEnStWMLOV1FW-64" vertex="1">
          <mxGeometry y="130" width="220" height="26" as="geometry" />
        </mxCell>
        <mxCell id="d7hLo8dY_kVcd_JbLJmu-11" value="+ description: string" style="text;strokeColor=none;fillColor=none;align=left;verticalAlign=top;spacingLeft=4;spacingRight=4;overflow=hidden;rotatable=0;points=[[0,0.5],[1,0.5]];portConstraint=eastwest;whiteSpace=wrap;html=1;" parent="rivaF_KSEnStWMLOV1FW-64" vertex="1">
          <mxGeometry y="156" width="220" height="26" as="geometry" />
        </mxCell>
        <mxCell id="rivaF_KSEnStWMLOV1FW-70" value="has_grade" style="endArrow=none;html=1;rounded=0;align=center;verticalAlign=top;endFill=0;labelBackgroundColor=none;exitX=1;exitY=0.5;exitDx=0;exitDy=0;entryX=0;entryY=0.5;entryDx=0;entryDy=0;" parent="1" source="rivaF_KSEnStWMLOV1FW-65" target="rivaF_KSEnStWMLOV1FW-6" edge="1">
          <mxGeometry relative="1" as="geometry">
            <mxPoint x="-220" y="317.57" as="sourcePoint" />
            <mxPoint x="-20" y="317.57" as="targetPoint" />
          </mxGeometry>
        </mxCell>
        <mxCell id="rivaF_KSEnStWMLOV1FW-71" value="has" style="resizable=0;html=1;align=left;verticalAlign=bottom;labelBackgroundColor=none;" parent="rivaF_KSEnStWMLOV1FW-70" connectable="0" vertex="1">
          <mxGeometry x="-1" relative="1" as="geometry" />
        </mxCell>
        <mxCell id="rivaF_KSEnStWMLOV1FW-72" value="0..n" style="resizable=0;html=1;align=left;verticalAlign=top;labelBackgroundColor=none;" parent="rivaF_KSEnStWMLOV1FW-70" connectable="0" vertex="1">
          <mxGeometry x="-1" relative="1" as="geometry" />
        </mxCell>
        <mxCell id="rivaF_KSEnStWMLOV1FW-73" value="got_by" style="resizable=0;html=1;align=right;verticalAlign=bottom;labelBackgroundColor=none;" parent="rivaF_KSEnStWMLOV1FW-70" connectable="0" vertex="1">
          <mxGeometry x="1" relative="1" as="geometry" />
        </mxCell>
        <mxCell id="rivaF_KSEnStWMLOV1FW-74" value="0..n" style="resizable=0;html=1;align=right;verticalAlign=top;labelBackgroundColor=none;" parent="rivaF_KSEnStWMLOV1FW-70" connectable="0" vertex="1">
          <mxGeometry x="1" relative="1" as="geometry" />
        </mxCell>
        <mxCell id="rivaF_KSEnStWMLOV1FW-75" value="has_subject" style="endArrow=none;html=1;rounded=0;align=center;verticalAlign=top;endFill=0;labelBackgroundColor=none;exitX=1;exitY=0.5;exitDx=0;exitDy=0;entryX=0;entryY=0.5;entryDx=0;entryDy=0;" parent="1" target="rivaF_KSEnStWMLOV1FW-18" edge="1">
          <mxGeometry relative="1" as="geometry">
            <mxPoint x="-590.0000000000001" y="357" as="sourcePoint" />
            <mxPoint x="-160" y="450" as="targetPoint" />
            <Array as="points">
              <mxPoint x="-170" y="357" />
              <mxPoint x="-170" y="500" />
            </Array>
          </mxGeometry>
        </mxCell>
        <mxCell id="rivaF_KSEnStWMLOV1FW-76" value="has" style="resizable=0;html=1;align=left;verticalAlign=bottom;labelBackgroundColor=none;" parent="rivaF_KSEnStWMLOV1FW-75" connectable="0" vertex="1">
          <mxGeometry x="-1" relative="1" as="geometry" />
        </mxCell>
        <mxCell id="rivaF_KSEnStWMLOV1FW-77" value="0..n" style="resizable=0;html=1;align=left;verticalAlign=top;labelBackgroundColor=none;" parent="rivaF_KSEnStWMLOV1FW-75" connectable="0" vertex="1">
          <mxGeometry x="-1" relative="1" as="geometry" />
        </mxCell>
        <mxCell id="rivaF_KSEnStWMLOV1FW-78" value="from" style="resizable=0;html=1;align=right;verticalAlign=bottom;labelBackgroundColor=none;" parent="rivaF_KSEnStWMLOV1FW-75" connectable="0" vertex="1">
          <mxGeometry x="1" relative="1" as="geometry" />
        </mxCell>
        <mxCell id="rivaF_KSEnStWMLOV1FW-79" value="1" style="resizable=0;html=1;align=right;verticalAlign=top;labelBackgroundColor=none;" parent="rivaF_KSEnStWMLOV1FW-75" connectable="0" vertex="1">
          <mxGeometry x="1" relative="1" as="geometry" />
        </mxCell>
        <mxCell id="rivaF_KSEnStWMLOV1FW-87" value="tabulka pro asociaci" style="text;html=1;align=center;verticalAlign=middle;resizable=0;points=[];autosize=1;strokeColor=none;fillColor=none;" parent="1" vertex="1">
          <mxGeometry x="225" y="410" width="130" height="30" as="geometry" />
        </mxCell>
        <mxCell id="rivaF_KSEnStWMLOV1FW-88" value="tabulka pro asociaci" style="text;html=1;align=center;verticalAlign=middle;resizable=0;points=[];autosize=1;strokeColor=none;fillColor=none;" parent="1" vertex="1">
          <mxGeometry x="430" y="570" width="130" height="30" as="geometry" />
        </mxCell>
        <mxCell id="rivaF_KSEnStWMLOV1FW-89" value="Lecture" style="swimlane;fontStyle=0;childLayout=stackLayout;horizontal=1;startSize=26;fillColor=none;horizontalStack=0;resizeParent=1;resizeParentMax=0;resizeLast=0;collapsible=1;marginBottom=0;whiteSpace=wrap;html=1;" parent="1" vertex="1">
          <mxGeometry x="-330" y="650" width="180" height="182" as="geometry" />
        </mxCell>
        <mxCell id="rivaF_KSEnStWMLOV1FW-90" value="+ lecture_id: number" style="text;strokeColor=none;fillColor=none;align=left;verticalAlign=top;spacingLeft=4;spacingRight=4;overflow=hidden;rotatable=0;points=[[0,0.5],[1,0.5]];portConstraint=eastwest;whiteSpace=wrap;html=1;" parent="rivaF_KSEnStWMLOV1FW-89" vertex="1">
          <mxGeometry y="26" width="180" height="26" as="geometry" />
        </mxCell>
        <mxCell id="rivaF_KSEnStWMLOV1FW-91" value="+ start_time: timestamp" style="text;strokeColor=none;fillColor=none;align=left;verticalAlign=top;spacingLeft=4;spacingRight=4;overflow=hidden;rotatable=0;points=[[0,0.5],[1,0.5]];portConstraint=eastwest;whiteSpace=wrap;html=1;" parent="rivaF_KSEnStWMLOV1FW-89" vertex="1">
          <mxGeometry y="52" width="180" height="26" as="geometry" />
        </mxCell>
        <mxCell id="rvQ-3mQatl_0PxyZc41R-3" value="+ end_time: timestamp" style="text;strokeColor=none;fillColor=none;align=left;verticalAlign=top;spacingLeft=4;spacingRight=4;overflow=hidden;rotatable=0;points=[[0,0.5],[1,0.5]];portConstraint=eastwest;whiteSpace=wrap;html=1;" parent="rivaF_KSEnStWMLOV1FW-89" vertex="1">
          <mxGeometry y="78" width="180" height="26" as="geometry" />
        </mxCell>
        <mxCell id="rivaF_KSEnStWMLOV1FW-92" value="+ description: string" style="text;strokeColor=none;fillColor=none;align=left;verticalAlign=top;spacingLeft=4;spacingRight=4;overflow=hidden;rotatable=0;points=[[0,0.5],[1,0.5]];portConstraint=eastwest;whiteSpace=wrap;html=1;" parent="rivaF_KSEnStWMLOV1FW-89" vertex="1">
          <mxGeometry y="104" width="180" height="26" as="geometry" />
        </mxCell>
        <mxCell id="Tpb4l5Iv04eRzwkJJBeW-24" value="+ subject_id_FK: number" style="text;strokeColor=none;fillColor=none;align=left;verticalAlign=top;spacingLeft=4;spacingRight=4;overflow=hidden;rotatable=0;points=[[0,0.5],[1,0.5]];portConstraint=eastwest;whiteSpace=wrap;html=1;" parent="rivaF_KSEnStWMLOV1FW-89" vertex="1">
          <mxGeometry y="130" width="180" height="26" as="geometry" />
        </mxCell>
        <mxCell id="rivaF_KSEnStWMLOV1FW-93" value="+ classroom_id_FK: number" style="text;strokeColor=none;fillColor=none;align=left;verticalAlign=top;spacingLeft=4;spacingRight=4;overflow=hidden;rotatable=0;points=[[0,0.5],[1,0.5]];portConstraint=eastwest;whiteSpace=wrap;html=1;" parent="rivaF_KSEnStWMLOV1FW-89" vertex="1">
          <mxGeometry y="156" width="180" height="26" as="geometry" />
        </mxCell>
        <mxCell id="rivaF_KSEnStWMLOV1FW-95" value="has" style="endArrow=none;html=1;rounded=0;align=center;verticalAlign=top;endFill=0;labelBackgroundColor=none;exitX=1;exitY=0.5;exitDx=0;exitDy=0;entryX=-0.001;entryY=0.848;entryDx=0;entryDy=0;entryPerimeter=0;" parent="1" source="rivaF_KSEnStWMLOV1FW-90" target="rivaF_KSEnStWMLOV1FW-20" edge="1">
          <mxGeometry relative="1" as="geometry">
            <mxPoint x="-130" y="680" as="sourcePoint" />
            <mxPoint x="70" y="680" as="targetPoint" />
            <Array as="points">
              <mxPoint x="-80" y="689" />
              <mxPoint x="-80" y="560" />
            </Array>
          </mxGeometry>
        </mxCell>
        <mxCell id="rivaF_KSEnStWMLOV1FW-96" value="has_lecture" style="resizable=0;html=1;align=left;verticalAlign=bottom;labelBackgroundColor=none;" parent="rivaF_KSEnStWMLOV1FW-95" connectable="0" vertex="1">
          <mxGeometry x="-1" relative="1" as="geometry" />
        </mxCell>
        <mxCell id="rivaF_KSEnStWMLOV1FW-97" value="0..n" style="resizable=0;html=1;align=left;verticalAlign=top;labelBackgroundColor=none;" parent="rivaF_KSEnStWMLOV1FW-95" connectable="0" vertex="1">
          <mxGeometry x="-1" relative="1" as="geometry" />
        </mxCell>
        <mxCell id="rivaF_KSEnStWMLOV1FW-98" value="has" style="resizable=0;html=1;align=right;verticalAlign=bottom;labelBackgroundColor=none;" parent="rivaF_KSEnStWMLOV1FW-95" connectable="0" vertex="1">
          <mxGeometry x="1" relative="1" as="geometry" />
        </mxCell>
        <mxCell id="rivaF_KSEnStWMLOV1FW-99" value="1" style="resizable=0;html=1;align=right;verticalAlign=top;labelBackgroundColor=none;" parent="rivaF_KSEnStWMLOV1FW-95" connectable="0" vertex="1">
          <mxGeometry x="1" relative="1" as="geometry">
            <mxPoint x="-30" as="offset" />
          </mxGeometry>
        </mxCell>
        <mxCell id="rivaF_KSEnStWMLOV1FW-105" value="Class (prima, atd.)" style="swimlane;fontStyle=0;childLayout=stackLayout;horizontal=1;startSize=26;fillColor=none;horizontalStack=0;resizeParent=1;resizeParentMax=0;resizeLast=0;collapsible=1;marginBottom=0;whiteSpace=wrap;html=1;" parent="1" vertex="1">
          <mxGeometry x="-280" y="100" width="175" height="104" as="geometry" />
        </mxCell>
        <mxCell id="rivaF_KSEnStWMLOV1FW-106" value="+ class_id: number" style="text;strokeColor=none;fillColor=none;align=left;verticalAlign=top;spacingLeft=4;spacingRight=4;overflow=hidden;rotatable=0;points=[[0,0.5],[1,0.5]];portConstraint=eastwest;whiteSpace=wrap;html=1;" parent="rivaF_KSEnStWMLOV1FW-105" vertex="1">
          <mxGeometry y="26" width="175" height="26" as="geometry" />
        </mxCell>
        <mxCell id="rivaF_KSEnStWMLOV1FW-107" value="+ name: string" style="text;strokeColor=none;fillColor=none;align=left;verticalAlign=top;spacingLeft=4;spacingRight=4;overflow=hidden;rotatable=0;points=[[0,0.5],[1,0.5]];portConstraint=eastwest;whiteSpace=wrap;html=1;" parent="rivaF_KSEnStWMLOV1FW-105" vertex="1">
          <mxGeometry y="52" width="175" height="26" as="geometry" />
        </mxCell>
        <mxCell id="rivaF_KSEnStWMLOV1FW-108" value="+ teacher_id_FK: number" style="text;strokeColor=none;fillColor=none;align=left;verticalAlign=top;spacingLeft=4;spacingRight=4;overflow=hidden;rotatable=0;points=[[0,0.5],[1,0.5]];portConstraint=eastwest;whiteSpace=wrap;html=1;" parent="rivaF_KSEnStWMLOV1FW-105" vertex="1">
          <mxGeometry y="78" width="175" height="26" as="geometry" />
        </mxCell>
        <mxCell id="rivaF_KSEnStWMLOV1FW-111" value="belongs_to" style="endArrow=none;html=1;rounded=0;align=center;verticalAlign=top;endFill=0;labelBackgroundColor=none;exitX=1;exitY=0.5;exitDx=0;exitDy=0;entryX=0.25;entryY=0;entryDx=0;entryDy=0;" parent="1" source="rivaF_KSEnStWMLOV1FW-106" target="rivaF_KSEnStWMLOV1FW-5" edge="1">
          <mxGeometry relative="1" as="geometry">
            <mxPoint x="-80" y="140" as="sourcePoint" />
            <mxPoint x="105" y="120" as="targetPoint" />
            <Array as="points">
              <mxPoint x="-25" y="140" />
            </Array>
          </mxGeometry>
        </mxCell>
        <mxCell id="rivaF_KSEnStWMLOV1FW-112" value="belongs_to" style="resizable=0;html=1;align=left;verticalAlign=bottom;labelBackgroundColor=none;" parent="rivaF_KSEnStWMLOV1FW-111" connectable="0" vertex="1">
          <mxGeometry x="-1" relative="1" as="geometry" />
        </mxCell>
        <mxCell id="rivaF_KSEnStWMLOV1FW-113" value="0..1" style="resizable=0;html=1;align=left;verticalAlign=top;labelBackgroundColor=none;" parent="rivaF_KSEnStWMLOV1FW-111" connectable="0" vertex="1">
          <mxGeometry x="-1" relative="1" as="geometry" />
        </mxCell>
        <mxCell id="rivaF_KSEnStWMLOV1FW-114" value="has" style="resizable=0;html=1;align=right;verticalAlign=bottom;labelBackgroundColor=none;" parent="rivaF_KSEnStWMLOV1FW-111" connectable="0" vertex="1">
          <mxGeometry x="1" relative="1" as="geometry" />
        </mxCell>
        <mxCell id="rivaF_KSEnStWMLOV1FW-115" value="0..n" style="resizable=0;html=1;align=right;verticalAlign=top;labelBackgroundColor=none;" parent="rivaF_KSEnStWMLOV1FW-111" connectable="0" vertex="1">
          <mxGeometry x="1" relative="1" as="geometry">
            <mxPoint x="25" y="-20" as="offset" />
          </mxGeometry>
        </mxCell>
        <mxCell id="Ak9ydLxDt3nRtR0MyFEP-1" value="Classroom" style="swimlane;fontStyle=0;childLayout=stackLayout;horizontal=1;startSize=26;fillColor=none;horizontalStack=0;resizeParent=1;resizeParentMax=0;resizeLast=0;collapsible=1;marginBottom=0;whiteSpace=wrap;html=1;" parent="1" vertex="1">
          <mxGeometry x="40" y="650" width="250" height="104" as="geometry" />
        </mxCell>
        <mxCell id="Ak9ydLxDt3nRtR0MyFEP-2" value="+ classroom_id: number" style="text;strokeColor=none;fillColor=none;align=left;verticalAlign=top;spacingLeft=4;spacingRight=4;overflow=hidden;rotatable=0;points=[[0,0.5],[1,0.5]];portConstraint=eastwest;whiteSpace=wrap;html=1;" parent="Ak9ydLxDt3nRtR0MyFEP-1" vertex="1">
          <mxGeometry y="26" width="250" height="26" as="geometry" />
        </mxCell>
        <mxCell id="Ak9ydLxDt3nRtR0MyFEP-3" value="+ name: string" style="text;strokeColor=none;fillColor=none;align=left;verticalAlign=top;spacingLeft=4;spacingRight=4;overflow=hidden;rotatable=0;points=[[0,0.5],[1,0.5]];portConstraint=eastwest;whiteSpace=wrap;html=1;" parent="Ak9ydLxDt3nRtR0MyFEP-1" vertex="1">
          <mxGeometry y="52" width="250" height="26" as="geometry" />
        </mxCell>
        <mxCell id="Ak9ydLxDt3nRtR0MyFEP-4" value="+ capacity: number" style="text;strokeColor=none;fillColor=none;align=left;verticalAlign=top;spacingLeft=4;spacingRight=4;overflow=hidden;rotatable=0;points=[[0,0.5],[1,0.5]];portConstraint=eastwest;whiteSpace=wrap;html=1;" parent="Ak9ydLxDt3nRtR0MyFEP-1" vertex="1">
          <mxGeometry y="78" width="250" height="26" as="geometry" />
        </mxCell>
        <mxCell id="Ak9ydLxDt3nRtR0MyFEP-5" value="is in" style="endArrow=none;html=1;rounded=0;align=center;verticalAlign=top;endFill=0;labelBackgroundColor=none;exitX=1;exitY=0.5;exitDx=0;exitDy=0;entryX=0;entryY=0.5;entryDx=0;entryDy=0;" parent="1" source="rivaF_KSEnStWMLOV1FW-91" target="Ak9ydLxDt3nRtR0MyFEP-3" edge="1">
          <mxGeometry relative="1" as="geometry">
            <mxPoint x="-130" y="770" as="sourcePoint" />
            <mxPoint x="70" y="770" as="targetPoint" />
          </mxGeometry>
        </mxCell>
        <mxCell id="Ak9ydLxDt3nRtR0MyFEP-6" value="has" style="resizable=0;html=1;align=left;verticalAlign=bottom;labelBackgroundColor=none;" parent="Ak9ydLxDt3nRtR0MyFEP-5" connectable="0" vertex="1">
          <mxGeometry x="-1" relative="1" as="geometry">
            <mxPoint x="10" y="15" as="offset" />
          </mxGeometry>
        </mxCell>
        <mxCell id="Ak9ydLxDt3nRtR0MyFEP-7" value="0..n" style="resizable=0;html=1;align=left;verticalAlign=top;labelBackgroundColor=none;" parent="Ak9ydLxDt3nRtR0MyFEP-5" connectable="0" vertex="1">
          <mxGeometry x="-1" relative="1" as="geometry" />
        </mxCell>
        <mxCell id="Ak9ydLxDt3nRtR0MyFEP-8" value="is_in" style="resizable=0;html=1;align=right;verticalAlign=bottom;labelBackgroundColor=none;" parent="Ak9ydLxDt3nRtR0MyFEP-5" connectable="0" vertex="1">
          <mxGeometry x="1" relative="1" as="geometry" />
        </mxCell>
        <mxCell id="Ak9ydLxDt3nRtR0MyFEP-9" value="1" style="resizable=0;html=1;align=right;verticalAlign=top;labelBackgroundColor=none;" parent="Ak9ydLxDt3nRtR0MyFEP-5" connectable="0" vertex="1">
          <mxGeometry x="1" relative="1" as="geometry" />
        </mxCell>
        <mxCell id="QoHmzbH1DfO4sHHeWGla-1" value="tabulka pro asociaci" style="text;html=1;align=center;verticalAlign=middle;resizable=0;points=[];autosize=1;strokeColor=none;fillColor=none;" parent="1" vertex="1">
          <mxGeometry x="180" y="277" width="130" height="30" as="geometry" />
        </mxCell>
        <mxCell id="rvQ-3mQatl_0PxyZc41R-8" value="teaches" style="endArrow=none;html=1;rounded=0;align=center;verticalAlign=top;endFill=0;labelBackgroundColor=none;exitX=1.001;exitY=0.88;exitDx=0;exitDy=0;entryX=0.785;entryY=1.008;entryDx=0;entryDy=0;entryPerimeter=0;exitPerimeter=0;" parent="1" source="Tpb4l5Iv04eRzwkJJBeW-24" target="rivaF_KSEnStWMLOV1FW-10" edge="1">
          <mxGeometry relative="1" as="geometry">
            <mxPoint x="-180" y="930" as="sourcePoint" />
            <mxPoint x="780" y="810" as="targetPoint" />
            <Array as="points">
              <mxPoint x="770" y="805" />
            </Array>
          </mxGeometry>
        </mxCell>
        <mxCell id="rvQ-3mQatl_0PxyZc41R-9" value="teaches" style="resizable=0;html=1;align=left;verticalAlign=bottom;labelBackgroundColor=none;" parent="rvQ-3mQatl_0PxyZc41R-8" connectable="0" vertex="1">
          <mxGeometry x="-1" relative="1" as="geometry" />
        </mxCell>
        <mxCell id="rvQ-3mQatl_0PxyZc41R-10" value="0..n" style="resizable=0;html=1;align=left;verticalAlign=top;labelBackgroundColor=none;" parent="rvQ-3mQatl_0PxyZc41R-8" connectable="0" vertex="1">
          <mxGeometry x="-1" relative="1" as="geometry" />
        </mxCell>
        <mxCell id="rvQ-3mQatl_0PxyZc41R-11" value="taught_by" style="resizable=0;html=1;align=right;verticalAlign=bottom;labelBackgroundColor=none;" parent="rvQ-3mQatl_0PxyZc41R-8" connectable="0" vertex="1">
          <mxGeometry x="1" relative="1" as="geometry">
            <mxPoint y="18" as="offset" />
          </mxGeometry>
        </mxCell>
        <mxCell id="rvQ-3mQatl_0PxyZc41R-12" value="0..n" style="resizable=0;html=1;align=right;verticalAlign=top;labelBackgroundColor=none;" parent="rvQ-3mQatl_0PxyZc41R-8" connectable="0" vertex="1">
          <mxGeometry x="1" relative="1" as="geometry">
            <mxPoint x="30" y="-2" as="offset" />
          </mxGeometry>
        </mxCell>
        <mxCell id="rvQ-3mQatl_0PxyZc41R-15" value="attends" style="endArrow=none;html=1;rounded=0;align=center;verticalAlign=top;endFill=0;labelBackgroundColor=none;exitX=0.5;exitY=0;exitDx=0;exitDy=0;entryX=0;entryY=0.5;entryDx=0;entryDy=0;" parent="1" source="rivaF_KSEnStWMLOV1FW-89" target="rivaF_KSEnStWMLOV1FW-8" edge="1">
          <mxGeometry relative="1" as="geometry">
            <mxPoint x="-310" y="560" as="sourcePoint" />
            <mxPoint x="-110" y="560" as="targetPoint" />
            <Array as="points">
              <mxPoint x="-240" y="600" />
              <mxPoint x="-120" y="600" />
              <mxPoint x="-120" y="330" />
            </Array>
          </mxGeometry>
        </mxCell>
        <mxCell id="rvQ-3mQatl_0PxyZc41R-16" value="attends" style="resizable=0;html=1;align=left;verticalAlign=bottom;labelBackgroundColor=none;" parent="rvQ-3mQatl_0PxyZc41R-15" connectable="0" vertex="1">
          <mxGeometry x="-1" relative="1" as="geometry">
            <mxPoint y="-10" as="offset" />
          </mxGeometry>
        </mxCell>
        <mxCell id="rvQ-3mQatl_0PxyZc41R-17" value="0..n" style="resizable=0;html=1;align=left;verticalAlign=top;labelBackgroundColor=none;" parent="rvQ-3mQatl_0PxyZc41R-15" connectable="0" vertex="1">
          <mxGeometry x="-1" relative="1" as="geometry">
            <mxPoint x="-30" y="-30" as="offset" />
          </mxGeometry>
        </mxCell>
        <mxCell id="rvQ-3mQatl_0PxyZc41R-18" value="attended_by" style="resizable=0;html=1;align=right;verticalAlign=bottom;labelBackgroundColor=none;" parent="rvQ-3mQatl_0PxyZc41R-15" connectable="0" vertex="1">
          <mxGeometry x="1" relative="1" as="geometry" />
        </mxCell>
        <mxCell id="rvQ-3mQatl_0PxyZc41R-19" value="0..n" style="resizable=0;html=1;align=right;verticalAlign=top;labelBackgroundColor=none;" parent="rvQ-3mQatl_0PxyZc41R-15" connectable="0" vertex="1">
          <mxGeometry x="1" relative="1" as="geometry" />
        </mxCell>
        <mxCell id="d7hLo8dY_kVcd_JbLJmu-22" value="Grade" style="swimlane;fontStyle=0;childLayout=stackLayout;horizontal=1;startSize=26;fillColor=none;horizontalStack=0;resizeParent=1;resizeParentMax=0;resizeLast=0;collapsible=1;marginBottom=0;whiteSpace=wrap;html=1;" parent="1" vertex="1">
          <mxGeometry x="-520" y="30" width="190" height="156" as="geometry" />
        </mxCell>
        <mxCell id="d7hLo8dY_kVcd_JbLJmu-23" value="+ grade_group_id: number" style="text;strokeColor=none;fillColor=none;align=left;verticalAlign=top;spacingLeft=4;spacingRight=4;overflow=hidden;rotatable=0;points=[[0,0.5],[1,0.5]];portConstraint=eastwest;whiteSpace=wrap;html=1;" parent="d7hLo8dY_kVcd_JbLJmu-22" vertex="1">
          <mxGeometry y="26" width="190" height="26" as="geometry" />
        </mxCell>
        <mxCell id="d7hLo8dY_kVcd_JbLJmu-24" value="+ student_id: number" style="text;strokeColor=none;fillColor=none;align=left;verticalAlign=top;spacingLeft=4;spacingRight=4;overflow=hidden;rotatable=0;points=[[0,0.5],[1,0.5]];portConstraint=eastwest;whiteSpace=wrap;html=1;" parent="d7hLo8dY_kVcd_JbLJmu-22" vertex="1">
          <mxGeometry y="52" width="190" height="26" as="geometry" />
        </mxCell>
        <mxCell id="d7hLo8dY_kVcd_JbLJmu-25" value="+ grade: number" style="text;strokeColor=none;fillColor=none;align=left;verticalAlign=top;spacingLeft=4;spacingRight=4;overflow=hidden;rotatable=0;points=[[0,0.5],[1,0.5]];portConstraint=eastwest;whiteSpace=wrap;html=1;" parent="d7hLo8dY_kVcd_JbLJmu-22" vertex="1">
          <mxGeometry y="78" width="190" height="26" as="geometry" />
        </mxCell>
        <mxCell id="d7hLo8dY_kVcd_JbLJmu-33" value="+ message: string" style="text;strokeColor=none;fillColor=none;align=left;verticalAlign=top;spacingLeft=4;spacingRight=4;overflow=hidden;rotatable=0;points=[[0,0.5],[1,0.5]];portConstraint=eastwest;whiteSpace=wrap;html=1;" parent="d7hLo8dY_kVcd_JbLJmu-22" vertex="1">
          <mxGeometry y="104" width="190" height="26" as="geometry" />
        </mxCell>
        <mxCell id="d7hLo8dY_kVcd_JbLJmu-34" value="+ date: timestamp" style="text;strokeColor=none;fillColor=none;align=left;verticalAlign=top;spacingLeft=4;spacingRight=4;overflow=hidden;rotatable=0;points=[[0,0.5],[1,0.5]];portConstraint=eastwest;whiteSpace=wrap;html=1;" parent="d7hLo8dY_kVcd_JbLJmu-22" vertex="1">
          <mxGeometry y="130" width="190" height="26" as="geometry" />
        </mxCell>
        <mxCell id="d7hLo8dY_kVcd_JbLJmu-29" value="" style="endArrow=none;startArrow=none;endFill=0;startFill=0;endSize=8;html=1;verticalAlign=bottom;labelBackgroundColor=none;strokeWidth=3;rounded=0;exitX=0.558;exitY=1.024;exitDx=0;exitDy=0;exitPerimeter=0;" parent="1" source="d7hLo8dY_kVcd_JbLJmu-34" edge="1">
          <mxGeometry width="160" relative="1" as="geometry">
            <mxPoint x="-413.05000000000007" y="234.00400000000002" as="sourcePoint" />
            <mxPoint x="-412.97" y="278.99" as="targetPoint" />
          </mxGeometry>
        </mxCell>
        <mxCell id="Tpb4l5Iv04eRzwkJJBeW-3" value="has" style="endArrow=none;html=1;rounded=0;align=center;verticalAlign=top;endFill=0;labelBackgroundColor=none;exitX=0.75;exitY=0;exitDx=0;exitDy=0;" parent="1" source="rivaF_KSEnStWMLOV1FW-105" edge="1">
          <mxGeometry relative="1" as="geometry">
            <mxPoint x="-170" y="80" as="sourcePoint" />
            <mxPoint x="-80" y="-60" as="targetPoint" />
            <Array as="points">
              <mxPoint x="-150" y="-60" />
            </Array>
          </mxGeometry>
        </mxCell>
        <mxCell id="Tpb4l5Iv04eRzwkJJBeW-4" value="belongs_to" style="resizable=0;html=1;align=left;verticalAlign=bottom;labelBackgroundColor=none;" parent="Tpb4l5Iv04eRzwkJJBeW-3" connectable="0" vertex="1">
          <mxGeometry x="-1" relative="1" as="geometry">
            <mxPoint y="-10" as="offset" />
          </mxGeometry>
        </mxCell>
        <mxCell id="Tpb4l5Iv04eRzwkJJBeW-5" value="1" style="resizable=0;html=1;align=left;verticalAlign=top;labelBackgroundColor=none;" parent="Tpb4l5Iv04eRzwkJJBeW-3" connectable="0" vertex="1">
          <mxGeometry x="-1" relative="1" as="geometry">
            <mxPoint x="-31" y="-30" as="offset" />
          </mxGeometry>
        </mxCell>
        <mxCell id="Tpb4l5Iv04eRzwkJJBeW-6" value="has" style="resizable=0;html=1;align=right;verticalAlign=bottom;labelBackgroundColor=none;" parent="Tpb4l5Iv04eRzwkJJBeW-3" connectable="0" vertex="1">
          <mxGeometry x="1" relative="1" as="geometry" />
        </mxCell>
        <mxCell id="Tpb4l5Iv04eRzwkJJBeW-7" value="0..n" style="resizable=0;html=1;align=right;verticalAlign=top;labelBackgroundColor=none;" parent="Tpb4l5Iv04eRzwkJJBeW-3" connectable="0" vertex="1">
          <mxGeometry x="1" relative="1" as="geometry" />
        </mxCell>
        <mxCell id="Tpb4l5Iv04eRzwkJJBeW-17" value="Class Group" style="swimlane;fontStyle=0;childLayout=stackLayout;horizontal=1;startSize=26;fillColor=none;horizontalStack=0;resizeParent=1;resizeParentMax=0;resizeLast=0;collapsible=1;marginBottom=0;whiteSpace=wrap;html=1;" parent="1" vertex="1">
          <mxGeometry x="-80" y="-100" width="180" height="104" as="geometry" />
        </mxCell>
        <mxCell id="Tpb4l5Iv04eRzwkJJBeW-18" value="+ class_group_id: number" style="text;strokeColor=none;fillColor=none;align=left;verticalAlign=top;spacingLeft=4;spacingRight=4;overflow=hidden;rotatable=0;points=[[0,0.5],[1,0.5]];portConstraint=eastwest;whiteSpace=wrap;html=1;" parent="Tpb4l5Iv04eRzwkJJBeW-17" vertex="1">
          <mxGeometry y="26" width="180" height="26" as="geometry" />
        </mxCell>
        <mxCell id="Tpb4l5Iv04eRzwkJJBeW-19" value="+ class_id_FK: number" style="text;strokeColor=none;fillColor=none;align=left;verticalAlign=top;spacingLeft=4;spacingRight=4;overflow=hidden;rotatable=0;points=[[0,0.5],[1,0.5]];portConstraint=eastwest;whiteSpace=wrap;html=1;" parent="Tpb4l5Iv04eRzwkJJBeW-17" vertex="1">
          <mxGeometry y="52" width="180" height="26" as="geometry" />
        </mxCell>
        <mxCell id="Tpb4l5Iv04eRzwkJJBeW-22" value="+ group_name: string" style="text;strokeColor=none;fillColor=none;align=left;verticalAlign=top;spacingLeft=4;spacingRight=4;overflow=hidden;rotatable=0;points=[[0,0.5],[1,0.5]];portConstraint=eastwest;whiteSpace=wrap;html=1;" parent="Tpb4l5Iv04eRzwkJJBeW-17" vertex="1">
          <mxGeometry y="78" width="180" height="26" as="geometry" />
        </mxCell>
        <mxCell id="Tpb4l5Iv04eRzwkJJBeW-8" value="has" style="endArrow=none;html=1;rounded=0;align=center;verticalAlign=top;endFill=0;labelBackgroundColor=none;exitX=0.75;exitY=0;exitDx=0;exitDy=0;entryX=0.692;entryY=1.056;entryDx=0;entryDy=0;entryPerimeter=0;" parent="1" source="rivaF_KSEnStWMLOV1FW-5" target="Tpb4l5Iv04eRzwkJJBeW-22" edge="1">
          <mxGeometry x="0.1458" y="15" relative="1" as="geometry">
            <mxPoint x="-110" y="50" as="sourcePoint" />
            <mxPoint x="45" y="-22" as="targetPoint" />
            <mxPoint as="offset" />
          </mxGeometry>
        </mxCell>
        <mxCell id="Tpb4l5Iv04eRzwkJJBeW-9" value="has" style="resizable=0;html=1;align=left;verticalAlign=bottom;labelBackgroundColor=none;" parent="Tpb4l5Iv04eRzwkJJBeW-8" connectable="0" vertex="1">
          <mxGeometry x="-1" relative="1" as="geometry">
            <mxPoint x="-25" as="offset" />
          </mxGeometry>
        </mxCell>
        <mxCell id="Tpb4l5Iv04eRzwkJJBeW-10" value="0..n" style="resizable=0;html=1;align=left;verticalAlign=top;labelBackgroundColor=none;" parent="Tpb4l5Iv04eRzwkJJBeW-8" connectable="0" vertex="1">
          <mxGeometry x="-1" relative="1" as="geometry">
            <mxPoint x="5" y="-20" as="offset" />
          </mxGeometry>
        </mxCell>
        <mxCell id="Tpb4l5Iv04eRzwkJJBeW-11" value="is_in" style="resizable=0;html=1;align=right;verticalAlign=bottom;labelBackgroundColor=none;" parent="Tpb4l5Iv04eRzwkJJBeW-8" connectable="0" vertex="1">
          <mxGeometry x="1" relative="1" as="geometry">
            <mxPoint x="-5" y="15" as="offset" />
          </mxGeometry>
        </mxCell>
        <mxCell id="Tpb4l5Iv04eRzwkJJBeW-12" value="0..n" style="resizable=0;html=1;align=right;verticalAlign=top;labelBackgroundColor=none;" parent="Tpb4l5Iv04eRzwkJJBeW-8" connectable="0" vertex="1">
          <mxGeometry x="1" relative="1" as="geometry">
            <mxPoint x="25" y="-5" as="offset" />
          </mxGeometry>
        </mxCell>
        <mxCell id="EIvGmY-cn_oVQJhpizKd-2" value="Text" style="text;html=1;align=center;verticalAlign=middle;whiteSpace=wrap;rounded=0;" parent="1" vertex="1">
          <mxGeometry x="-150" y="270" width="60" height="30" as="geometry" />
        </mxCell>
        <mxCell id="EIvGmY-cn_oVQJhpizKd-3" value="Association class for many to many association" style="text;html=1;align=center;verticalAlign=middle;whiteSpace=wrap;rounded=0;" parent="1" vertex="1">
          <mxGeometry x="-555" y="-10" width="260" height="46" as="geometry" />
        </mxCell>
        <mxCell id="EIvGmY-cn_oVQJhpizKd-4" value="This class represents eg. a quizz or a test." style="text;html=1;align=center;verticalAlign=middle;whiteSpace=wrap;rounded=0;" parent="1" vertex="1">
          <mxGeometry x="-810" y="430" width="270" height="30" as="geometry" />
        </mxCell>
      </root>
    </mxGraphModel>
  </diagram>
</mxfile>
